<?xml version="1.0" encoding="utf-8"?>
<!-- Generator: Adobe Illustrator 27.6.1, SVG Export Plug-In . SVG Version: 6.00 Build 0)  -->
<svg version="1.1" id="Layer_1" xmlns="http://www.w3.org/2000/svg" xmlns:xlink="http://www.w3.org/1999/xlink" x="0px" y="0px"
	 viewBox="0 0 1253 455" style="enable-background:new 0 0 1253 455;" xml:space="preserve">
<style type="text/css">
	.st0{fill-rule:evenodd;clip-rule:evenodd;fill:#404040;}
	.st1{fill-rule:evenodd;clip-rule:evenodd;fill:#038041;}
	.st2{fill-rule:evenodd;clip-rule:evenodd;fill:#B52026;}
	.st3{fill-rule:evenodd;clip-rule:evenodd;fill:#0097C2;}
	.st4{fill-rule:evenodd;clip-rule:evenodd;fill:#949599;}
	.st5{fill-rule:evenodd;clip-rule:evenodd;fill:#A45C2B;}
	.st6{fill-rule:evenodd;clip-rule:evenodd;fill:#B4912F;}
	.st7{fill:#404040;}
</style>
<path class="st0" d="M1152.4,327.5l30.6-170.7l-13.9-13.8l-90.7,8.4L1048,270.9l98,63.1L1152.4,327.5z"/>
<path class="st1" d="M1060,153l-104,9.6l-30,29.8l106.5,68.6L1060,153z"/>
<path class="st2" d="M1083,133l70-6.5L1098.4,72L1083,133z"/>
<path class="st3" d="M1043.1,289l-18.1,71.8l47.2,47.2l60.8-60.8L1043.1,289z"/>
<path class="st4" d="M1174,307l79-79.5l-55.1-55.5L1174,307z"/>
<path class="st5" d="M1028,278.8L914,205l-22,22l119,119L1028,278.8z"/>
<path class="st6" d="M1072.4,47L976,143l88.6-8.2l19.4-76.3L1072.4,47z"/>
<g>
	<path class="st7" d="M630.7,300.8c-5.3,14.5-10.5,28.5-13.1,43.2c-1.3,7.8-1.2,8.1,6.8,6.7c25.5-4.4,48.1-15.6,69.9-29
		c2.8-1.7,3.9-3.6,2.1-7.1c-4.1-7.9-9.7-12.2-19.1-12.5c-11.5-0.3-22.8,3.5-34.4,0.3c-7.3-2-13.5-9.2-14.6-16.6
		c-2.4-16.7,3.2-30.4,14.2-42.5c7.6-8.4,23.9-8.7,34.8-0.8c21.2,15.3,28.2,37.1,28,61.8c-0.1,11.3-0.3,22.9-7.4,33
		c-3.3,4.7-7.8,7.8-12.1,10.8c-18.1,12.5-38.2,21.1-59.2,27.9c-7.3,2.4-7.8,4.2-2.9,10c15.9,19.3,34.5,23.4,57.8,13.8
		c24-9.8,44.7-24.5,64.1-41.3c13.7-11.8,26.5-24.3,37-39.1c4-5.7,3-8.6-3.2-11.6c-8.5-4.2-17.2-3.1-26.1-2.2
		c-8.3,0.8-16.4,2.4-24.5-2.5c-4.7-2.9-8-6.9-8.9-11.4c-3-13.9-0.3-27.4,7.8-38.9c11.7-16.4,28.4-14.7,42.2-2.1
		c18.9,17.4,25.1,39.7,23,65.1c-1.5,17.6-11.3,30.4-22.4,42.6c-17.9,19.7-37.8,37.1-60.4,51.1c-15.1,9.3-31.1,17.8-49.3,19.5
		c-17.7,1.6-40.6-9.4-47.2-28.6c-2.1-6.1-4.9-11.9-5.3-18.5c-0.2-2.8-1.5-3-3.8-2.6c-13.5,2.2-26-1.4-36.1-9.9
		c-6.1-5.1-12.8-10.5-15.4-19c-1.4-4.5-3.2-7.2-9.5-3.3c-13.1,8.1-27.9,13.1-42.3,18.7c-19.1,7.5-38.8,13.3-58.7,18.1
		c-8.7,2.1-17.8,3.3-26.8,4.8c-11.4,1.9-15.3,8.7-11,20c1.4,3.5,3.2,8.1,7,8.4c4.1,0.3,6.1-3.9,7.5-7.7c0.3-0.9,0.8-1.8,3.3-2.1
		c-2.7,7.8-4.6,15.3-11,20.2c-4.5,3.4-7.6-0.3-9.8-3.9c-4.6-7.9-4.8-16.4-2-25c0.8-2.5,1.4-5,2.4-8.3c-12.8,0-25,0.3-37.2-0.1
		c-24.6-0.6-47.9-6.5-67.8-21.3c-16.4-12.2-23.3-30.1-22.7-50.3c0.5-19.4,5.9-37.7,16.7-54c0.5-0.7,1.2-1.3,2.3-2.5
		c1.6,5.4-1,9.5-2.6,13.2c-8,17.9-7.6,35.3,1.5,52.5c3.1,5.7,7.9,10.4,13,14.2c17.9,13.3,38.6,20,60.7,20.8
		c22.8,0.8,45.7,2.1,68.3-2.6c12.2-2.5,24.4-4.5,36.5-7.7c22.4-5.9,43.7-14.8,65.2-22.9c3.9-1.5,6.2-3,5-8.9
		c-3.9-20.5-3.6-41.1,5.8-60.5c3.3-6.8,8.2-12.8,14.4-17.2c7.8-5.6,20-1.9,25.5,6.9c14.2,22.9,10.6,45.7-0.9,68
		c-3,5.8-9.4,9.5-15.1,13.1c-5.4,3.4-5.7,6.7-1.1,10.7c9.5,8.4,20.7,12.2,33.4,12.2c4.2,0,6.2-0.9,7.4-5.6
		c3.5-14.5,7.1-29,14.2-42.4C625.6,303.7,627.1,301.8,630.7,300.8z M546.2,287.1c0.1,5.4,4.6,23,7.3,29.1c1.3,3.1,3.3,2.2,5.2,1
		c8-5.1,15.9-10.2,23.8-15.5c3-2,4.9-4.8,3.7-8.6c-1.8-5.7-3-11.8-6.1-16.7c-2.1-3.5-4.4-7.8-9.6-8.9
		C558.5,264.9,545.9,274.8,546.2,287.1z M678.8,277c-10.2-14.9-22.7-18.7-33.4-11.3c-2.4,1.7-4.7,3.4-4,6.9c0.7,3.6,4,2.9,6.2,3.7
		C657.6,279.8,667.6,275,678.8,277z M765.5,277c-2.5-1.7-4.5-2.6-5.8-4.1c-5.3-6-12.2-5.8-19.1-5.2c-4.7,0.4-9.7,2.5-9.3,7.8
		c0.3,4.9,5.6,4.9,9.6,5.3C748.9,281.4,756.9,280.3,765.5,277z"/>
	<path class="st7" d="M44.4,224.7c6.4,1,8.5,5.4,12.3,7.3c4.4,2.1,7.3,2.6,10.7-2.3c10.3-14.9,21.6-29,36.3-39.9
		c1.9-1.4,3.2-3,0.7-5.2c-5.5-4.9-11-10.2-17.7-13.1c-10.3-4.5-20.5-3.1-29.8,3.6c-1.1,0.8-2.2,1.9-3.9,1.2
		c1.8-15.9,10.8-26,25.1-32.4c15-6.7,30.9-9.3,47-11.2c5-0.6,9.6,0.7,14.3,1.1c15.7,1.6,30.7,6,44.9,12.9c3.4,1.6,3.8,3.1,2.1,6.6
		c-2.4,4.9-5.6,9.5-5.7,15.3c0,1.7-1.3,2.1-2.9,2.6c-11.1,3.5-21.7,8.2-32,13.7c-6.6,3.6-2,4.7,0.1,6.4
		c20.6,15.7,42.8,17.5,67.1,9.5c13.2-4.3,25.9-9.4,38.3-15.5c5.6-2.8,10.8-6.7,15.7-10.7c2.3-1.8,6.9-3.3,5-7.6
		c-2.1-4.5-5.1-7.8-10.9-9.2c-11.4-2.8-22.5,0.5-33.7,0.4c-16.7-0.2-24.3-8.3-25.1-25.1c-0.7-14.1,4.8-25,14.4-34.3
		c7.1-6.8,22.7-6.8,31.4-0.3c24,17.7,32.9,42.2,28.8,70.7c-2.2,15.5-11.1,28.4-25.9,36.3c-14.2,7.5-28.8,14.6-44.1,18.5
		c-23.9,6-48.1,8.4-69.2-9.5c-4.9-4.1-10.1-7.8-14.2-12.6c-2.2-2.6-4.6-4.6-8-2.3c-14.2,9.5-27.3,20.1-37.3,34.2
		c-2.7,3.8-4.5,5.3,2.5,7.3c28.8,8.6,58,6.8,87.2,5.7c19.1-0.7,38.2-0.5,55.7,7.5c16.5,7.6,27.8,19.7,27.9,45.6
		c0.1,17.3-4.3,33.7-11.2,49.3c-10.6,24.2-28.3,42.3-49.6,57.5c-20.7,14.7-43.6,23-68.7,22.4c-29.3-0.7-53.7-12.9-69.7-38.2
		c-10-15.8-13.4-34-14.5-52.5c-1-17.1,0.5-33.9,4.9-50.7c3.6-13.9,7.7-27.5,14.6-40.2c1.7-3.1,0.1-5-2-6.8
		C50.7,236.5,48.1,231.1,44.4,224.7z M44.8,320.6c1.4,21,5.5,43.2,22.9,59.6c18.9,17.7,41.6,26,68,23.3
		c24.9-2.5,46.8-12.5,65.9-27.8c11.5-9.2,21.8-20,31-32.1c15.3-20.1,13.9-44-6.3-59.3c-13.1-10-28.8-12.6-44.5-13.3
		c-19.2-0.8-38.5,0.1-57.7-0.4c-10.3-0.3-20.6-1.8-30-6.3c-7.9-3.8-16.4-6.7-23.5-12.1c-3.4-2.6-5.2-1.1-6.6,1.9
		c-2.8,6-5.6,12.1-8.4,18.1C48.8,287.1,45.5,302.6,44.8,320.6z M225.6,132.1c7.5-0.6,13.7-1.1,19.8-1.6c1.9-0.1,3.4-0.4,2.3-3
		c-2.5-5.5-17.7-11.9-23.3-9.1c-4.2,2.2-11.2,4.2-10,9.6C215.4,132.6,222.3,131.9,225.6,132.1z M111.7,158.4
		c5.6,4.9,9.9,8.5,14,12.2c2.4,2.2,4.8,1.8,7.2,0.4c3.8-2.3,7.5-4.9,11.4-6.9c1.6-0.8,4.3-0.5,4.2-2.9c-0.1-2.2-2.9-2.5-4.6-2.6
		C133.9,157.7,123.7,157.4,111.7,158.4z"/>
	<path class="st7" d="M479,341.4c-2.6-9.6-2.6-9.7-12.8-7.1c-24.3,6.1-43.7-7-49.2-35.9c-6.6,4.7-10.5,11.4-15.1,17.4
		c-10.5,13.4-23.6,22.6-40.6,25.9c-15.4,3-34-5.2-42-18.7c-8.3-13.9-13.2-28.8-14.5-45.1c-1.1-13-4.7-25.9-5.7-38.9
		c-1.7-21.3-5.1-42.4-6.7-63.6c-1.6-20.8-4.5-41.5-6.8-62.2c-1.5-13.4-3.9-26.5-7.6-39.4c-1.4-4.9-1.3-10.4,1.4-15.4
		c3-5.6,5.6-11.5,6.4-18.9c5.7,4.6,5.3,10.6,5.9,15.5c0.7,5.8,2.1,11.3,2.8,17c3.5,30.9,9.3,61.5,10.8,92.6
		c0.9,18.1,5.3,36,6.1,54.1c0.9,19.7,4.9,38.8,8.2,58c2.4,14.2,6.1,28.8,20.5,35.4c13.4,6.2,27.5,4.6,41.1-1.2
		c15.3-6.5,24-19.8,33.3-32.4c2.5-3.4,6.2-5.7,8.1-9.7c0.9-1.9,3.5-1.6,5.3-1.1c2.3,0.6,1,2.8,1.2,4.3c0.7,4.5-1.6,8.7-0.4,13.5
		c3.3,14.2,12.7,22.6,27.1,22.8c21.1,0.3,20.6,0.3,21.3-20.8c0.6-18.3,4.8-35.8,15-51.4c7-10.7,20.2-9.7,26.9,1.1
		c13.7,22,11.1,43.8-0.1,65.4c-4.4,8.5-12.9,13.5-20.8,18.6c-3.2,2-6.5,4-10,5.5c-4,1.7-6.2,4-5.7,8.7
		C482.6,337.9,481.6,340.2,479,341.4z M483.5,296.3c-1,5.9-0.2,8,4.1,6.2c12.3-4.9,23.1-12,31.6-22.3c1.1-1.4,1.4-3,0.9-4.8
		c-1.6-5.5-3.2-10.7-7.3-15.2c-8.6-9.5-16-8-22.1,3.5C484.8,274.8,483.6,286.5,483.5,296.3z"/>
	<path class="st7" d="M563.7,41.7c-4,11.2-9.7,17.3-20.1,20.5c-14.5,4.5-28.1,11.6-42.2,17.4c-20,8.1-40.1,16-60.2,24.1
		c-14.1,5.7-28.2,11.5-42.3,17.2c-21.1,8.5-42.2,17-63.3,25.5c-4.6,1.9-8.7,5.1-14.1,4.6c1.3-12.7,11.7-16.2,21-20
		c10.6-4.2,21.2-8.3,31.7-12.7c12.9-5.4,26.1-10.2,39.2-15.1c6.5-2.4,12.9-5.1,19.2-7.9c18.3-8.1,37.1-14.9,55.5-22.5
		c20.8-8.6,41.5-17.4,62.8-24.7C554.9,46.7,558.5,44.4,563.7,41.7z"/>
	<path class="st7" d="M495.7,173.3c6.9-4.7,13.7-9.8,20.9-14.1c10.2-6.1,19.4-13.6,29.1-20.5c12.9-9.1,24.8-19.6,36.8-29.9
		c6.2-5.3,11.2-11.7,16.7-17.5c2.5-2.7,2.1-4.2-1.7-5.5c-4-1.4-7.9-3.3-11.2-5.9c-5.7-4.5-5.4-11.1-3.8-17.2c1.7-6.1,4-11.9,8.5-17
		c4.2-4.8,8.9-6.2,14.3-4.3c5.2,1.8,7.8,7,8.4,12c0.9,7,3.3,14.1,0.4,21.3c-0.7,1.8-0.2,4,1.9,4.9c8.1,3.8,3.7,10.2,3.1,15.7
		c-0.3,2.3-2.6,3-4.2,0.8c-1.7-2.4-3.5-5.9-6.1-5c-2.8,1-5.2,4.1-7,6.8c-9.8,14.9-22.4,27.2-36.2,38.3c-9,7.3-17.9,15.2-28.5,19.9
		C523.7,162.1,510.8,169.8,495.7,173.3z M607.7,72.9c2.2-7.3-0.7-12.4-6.4-16.1c-5.4-3.6-8.4,0.5-11.1,4.3c-2.9,4.1,1,6.4,3.4,6.9
		C598.7,68.8,602.7,72.2,607.7,72.9z"/>
	<path class="st7" d="M710.8,163c7.8-6.8,15.1-13.1,22.4-19.4c7.7-6.6,15.2-13.4,21.5-21.4c4.7-6,5.9-12.4,3.2-19.3
		c-3.5-9.1-8.1-17.6-14.2-25.4c-3.9-4.9-10.1-4.9-15.1-7.6c-10.3-5.6-8.7-13-5.2-22c1.1-2.8,2.8-2.4,5.2-1.2
		c10.9,5.5,17.6,14.9,24.2,24.7c4.6,6.7,6.3,14.7,10.5,22.1c2.6-2.7,2.4-5.7,2.2-8.3c-0.9-12.2,3.7-23.2,8.2-33.8
		c1.9-4.6,5.3-11.1,13.5-10.5c6.4,0.4,9.1,4.7,11.1,8.7c2.1,4.5-3.3,7.4-5.4,10.9c-1.5,2.4-3.4-0.2-4.6-1.4c-2.6-2.6-5.4-4.1-9-2.3
		c-3.9,1.9-6.2,4.8-6.5,9.4c-1.1,15.8-3.2,31.6-7.7,46.6c-4.3,14.5-11.8,28-25.5,36.8c-7.7,4.9-15.6,9.1-23.7,13.3
		C714.6,163.7,713.2,164.1,710.8,163z"/>
	<path class="st7" d="M138,88.6c0.8-6.6,2.2-13.1,2.3-19.7c0.2-9.1,3.9-16.7,9-23.8c3.3-4.6,10.5-5.3,14.8-2.1
		c5.2,4,6.4,12.5,2.5,17.3c-2.3,2.8-3.9,1.3-5.8-0.5c-6.5-6.2-11.3-5.4-14.6,2.8c-4.1,10.3-5.1,21.4-5.8,32.4
		c-0.2,3.3,0.2,6.7-1.4,9.9c-0.7,1.4-0.4,3.8-2.6,3.8c-2.3,0-2.8-2.3-3.1-4.2c-2-13.4-9.6-24.1-17.4-34.5c-0.3-0.3-0.8-0.4-2.3-1.2
		c-0.7,28-19.9,39.1-43,47.6c0.9-6.9,7.2-7.8,10.8-10.8C92,96.8,101.6,87.3,109,75.7c2.3-3.7,1.2-5.5-2.4-7.1
		c-7.6-3.4-10.7-13.2-7-20.8c1.5-3.1,3.5-3.6,6.4-2.2c9.1,4.3,14.9,12,19.9,20.2c4.4,7.2,8.5,14.6,10.1,23.1
		C136.6,88.8,137.3,88.7,138,88.6z"/>
	<path class="st7" d="M360.2,67.9c-2.5,27.8-20.8,39.5-44,47.4c2.2-6.2,8.2-8.3,12.4-11.7c10.4-8.5,19.8-17.6,26.6-29.2
		c1.3-2.3,2-4.4-1.8-6.2c-8.1-3.8-11-15.4-6.2-22.6c2.2-3.3,4.5-1.3,6.7,0c7.3,4.3,12.7,10.6,17,17.6c4.8,7.6,10,15.2,12.6,24.6
		c1.3-7.2,3.2-14.4,3.9-21.6c0.7-7.8,3.1-14.8,7.5-21.3c2.7-4,6.5-4.5,10.6-4.3c4.9,0.2,8.1,3.5,9.2,7.8c1.1,3.9,0.5,8-2.5,11.5
		c-2,2.3-2.7,0.3-3.9-0.7c-9-6.9-14.7-5.2-17.3,5.9c-1.9,8.2-3.5,16.5-3.4,24.9c0.1,6.1-1.4,11.8-4.9,18.4
		C376.5,93.9,372.3,79.5,360.2,67.9z"/>
	<path class="st7" d="M681.7,187.1c-2.6,3.7-5.4,7.7-8.3,11.6c-0.8,1.1-2.4,2-2.8,3.2c-1.5,4.9-3.7,3.1-6,0.8
		c-4.6-4.4-9.4-8.4-14.4-12.2c-2.9-2.3-3.5-1-5.5,0.7c-3.4,3.1-4.9,7.5-7.7,11c-2.9,3.7-4.3,2.1-6.6,0.2c-4.5-3.8-8.9-7.6-13.5-11.1
		c-4.4-3.4-5.2-7.8-1.3-12c1.5-1.5,3.2-2.8,4.4-4.6c5.9-9,6.2-9.2,14.2-1.8c4,3.7,8.5,10,12.5,9.5c3.8-0.5,6.9-7.6,10-12
		c2.6-3.8,3.8-4.2,7.3-0.3c4.3,4.9,10.1,8.4,15.2,12.6C680.3,183.6,681.8,184.7,681.7,187.1z"/>
	<path class="st7" d="M540.1,106.6c-0.1,10.6-5.8,14.7-15.2,17.7c-13.7,4.5-26.5,11.8-40,17.1c-13.6,5.4-26.6,12.3-40.5,17.2
		c-7.5,2.6-15.2,5.5-22.2,9.6c-2,1.2-4,2.6-7.2,2c3-8.7,8.2-14.9,16.6-18.4c13.1-5.4,26.2-11,39.3-16.5
		c17.2-7.3,34.6-14.5,51.6-22.3C528,110.5,533.8,108.6,540.1,106.6z"/>
	<path class="st7" d="M382.6,245.2c-0.2,8.1-2.8,15-7.8,21c-5.3,6.3-11.4,5.7-15.6-1.3c-5-8.4-6.5-17.1-3.8-26.8
		c2.9-10.8,4.9-21.8,10.6-31.6c2.1-3.6,0.9-5.6-2.1-7.8c-4.3-3.2-8.3-6.9-12.5-10.3c-3.2-2.6-3.8-5-0.9-8.4
		c3.5-4.2,6.6-8.6,9.6-13.1c1.5-2.3,2.7-1.2,4-0.1c5.2,4.5,10.3,8.9,15.9,12.9c4.1,2.9,4,7.7,0.7,11.1
		c-10.3,10.3-14.4,23.4-18.2,36.8c-2.3,8-1.6,15.6,2.3,22.9c1.5,2.8,3.4,6.1,6.8,5.5c3.6-0.6,7.4-2.2,8.3-6.7
		C380.3,247.8,381.1,246.4,382.6,245.2z"/>
	<path class="st7" d="M472.8,430.1c7.6-5.7,15.1-11.5,22.8-17.2c3.1-2.3,5.7-5.1,8.2-8c6.7-8.1,6.7-8.1-1-14.6
		c-3.6-3.1-2.5-15.3,1.7-16.9c2.9-1.1,4.9,1,6.8,2.8c9,8.7,14.5,19.4,17.9,31.3c0.4,1.3,0.8,2.7,1.8,5.9c1.6-10.8,4.6-19.2,7.4-27.8
		c1.4-4.4,3.5-7.4,6.8-10.4c4.1-3.7,7.3-3.7,11.1,0c4.4,4.2,3.7,9.1,1.5,13.8c-1.2,2.6-3.2,2-4.9-0.4c-1.7-2.3-3.9-4.7-7.2-3.5
		c-3.5,1.3-5.8,4-6.7,7.8c-2.4,10.7-4.9,21.4-7.3,32.1c-0.3,1.2-0.3,2.6-1.7,2.8c-1.9,0.3-2.4-1.4-2.5-2.8
		c-1.2-8.2-4.3-15.4-8.2-22.7c-1.7-3.1-3.5-5.4-6.7-8.1C509.9,417.9,492.1,424.9,472.8,430.1z"/>
	<path class="st7" d="M655.9,70c0.3-5.1-0.1-10-1.5-14.9c-0.3-1.1-1-2.5-0.7-3.4c1.4-3.4,0.7-9.1,4.6-9.5c2.7-0.2,2.5,5.5,3.2,8.6
		c2.4,12,1.4,23.7-3.8,35.1c-2.1,4.7-4.1,8.3,4,11.4c15.7,6,19.1,26.1,7.8,38.5c-5.2,5.6-14.1,7-20.3,3.2
		c-7.5-4.7-10.2-12.9-6.5-21.8c4.7-11.4,8.6-23.2,12.3-34.9C656.4,78,655.4,74,655.9,70z M670.4,122.7c0-5.6-7.4-12.7-15.5-14.8
		c-2.1-0.5-4.9-1.5-5.6,1.1c-1.3,4.8-1.9,10.1,0.3,14.6c2.1,4.3,6.8,6.8,11.2,6.6C665,130,670.1,128.7,670.4,122.7z"/>
	<path class="st7" d="M792.9,168.6c-1.4,9.8-5.6,14.6-14.8,17.8c-20.2,7-39.5,16.5-59.4,24.5c-6.9,2.8-13.5,6.7-21.6,8.2
		c1.3-13.3,11.6-16.4,20.8-20.3c14-6,28-11.9,42.2-17.3C770.8,177.5,781,171.8,792.9,168.6z"/>
	<path class="st7" d="M274.6,404.8c0.6,0.9,0.3,2.5,1.9,2.8c2.1,0.4,5.7-1.5,6,1.8c0.3,3.1-2.7,5.3-4.9,7.6
		c-1.2,1.2-4.7,0.4-3.7,3.3c0.8,2.3,3.5,2.4,5.7,2.1c6.3-0.7,11.7-4,17.5-6.1c3.6-1.2,1.2-3.8,0.5-5.9c-2.2-6.2,2-13.4,8.3-13.9
		c2.4-0.2,5.1,0.4,5.1,3.6c0,2-0.5,4.7-3.6,4.2c-1.8-0.3-3.8-1.9-5.2,0.2c-1,1.5,0.9,2.5,1.8,3.5c1.8,2,3.9,2.9,6.4,1.3
		c1.6-1,3-2.4,4.6-3.4c1.2-0.7,2.8-1.6,3.9-0.3c1.2,1.4,0.9,3.6-0.8,4.4c-12.9,6.1-24.1,15.7-38.4,18.7c-3.2,0.7-8,1-9.2-4.2
		c-0.7-3-2.1-1.5-3.6-1c-3.6,1.2-7.2,2.5-10.9,3.1c-3.9,0.6-8,0.4-7.9-5.4c0.1-3.1-1.3-3-3.6-2.1c-1.8,0.7-3.7,1.1-5.6,1.5
		c-4.4,0.7-8.3-0.6-10.9-4c-2.4-3.2-1.1-6.9,0.7-10.2c2.1-3.8,4.6-6.9,8-9.8c3.1-2.7,4.2-0.7,5.7,0.7c1.8,1.7,3,3.9,1.4,6.4
		c-1,1.5-2.2,1.5-3.6,0.5c-5.2-3.8-8.4,0.5-9.7,3.9c-2,5,3.2,6,6.4,6.3c6.9,0.8,13.1-1.7,18.8-5.5c2.3-1.6,2.3-3.4,0.3-5.3
		c-2.6-2.5-3.5-5.1-0.7-8.1c8,7,6.7,13.8-4.5,22.6c7.4,5.3,19.3,1,21.4-7.6c0.5-1.9,0.4-4.4,2.8-5.5L274.6,404.8z"/>
	<path class="st7" d="M575.2,192.2c0.1,2.6-10.9,18.3-12.9,19c-1.4,0.5-2.1-0.5-3-1.3c-5.2-4.5-10.5-9-15.9-13.3
		c-3.2-2.5-4.4-5.2-1.2-8.4c3.7-3.7,5.4-8.9,9.6-12.2c1.6-1.2,2.4-2.8,4.6-1c5.2,4.4,10.7,8.5,15.9,12.9
		C573.6,189.1,574.4,191,575.2,192.2z"/>
	<path class="st7" d="M237.4,58.1c0.1,3.7-9.5,17.1-12.3,18.3c-2.4,1.1-3.8-0.6-5-1.6c-5.5-4.4-10.8-9.1-16.2-13.6
		c-2.1-1.8-2-4.2-0.5-5.7c3.7-3.5,6-8.1,9-12.1c2.1-2.8,5.1-3.6,7.4-1.3c5,5,10.6,9.2,16.4,13.3C237,56,237.2,57.5,237.4,58.1z"/>
	<path class="st7" d="M285.8,208.4c-0.5,13.3-11.6,13.4-19,17.2c-9.3,4.7-19.3,8-28.9,12.3c-6.7,3-13.9,4.4-20.6,8.2
		c2.2-5.4,3.1-10.6,9.9-13.4c12.9-5.4,25.8-11.1,38.7-16.4C272.4,213.6,278.8,211.1,285.8,208.4z"/>
	<path class="st7" d="M456.3,166.7c1.7,7.7-3.3,12.9-5.2,18.9c-2.6,8.4-1.9,16.7-1.4,25c0.3,4.6,3.6,8.6,8.6,9.4
		c4.8,0.7,7.3-2.6,8.6-7c0.3-1.1,1.1-2,1.9-3.4c0.9,5.9-3.6,19.4-7.5,22.3c-2.9,2.2-6.4,4-10,2.2c-5.1-2.4-8.5-7.1-8.8-12.4
		c-0.6-11.4-1.8-23.2,3.9-33.9C450,181.3,449.1,172.7,456.3,166.7z"/>
	<path class="st7" d="M272.5,391.7c0-5.4,2.6-9,4.7-12.6c1.2-2.1,3.3-3.7,5.9-2.2c2.4,1.4,2.6,4.1,1.9,6.3c-1.1,3.8-3.2,0.7-5,0.4
		C274.4,382.8,275.6,388.7,272.5,391.7z"/>
	<path class="st7" d="M274.7,404.9c1.5-5.5,4.7-9.9,9.5-13c1.7-1.1,3.3-2.1,5.2-0.7c1.3,1,1.5,2.3,1.2,3.9c-0.4,2.6-2.2,3-4.3,2.5
		c-6.4-1.6-7.4,5.5-11.9,7.1C274.6,404.8,274.7,404.9,274.7,404.9z"/>
	<path class="st7" d="M126.6,302.7c-2.3,6.7-4.1,11.5-8.2,14.9c-5.3,4.4-11.1,8.3-16.1,13c-4.5,4.2-10.5,8.4-8.5,16
		c1.3,4.7,13.1,11.8,19.9,9.9c10.1-2.9,20.3-5.3,27.9-13.4c1.6-1.6,3.7-2.7,6.8-4.9c-4.4,12.6-12.5,20.3-23.3,24.5
		c-6.1,2.4-12.3,5.1-19.3,5c-15.8-0.4-22.9-11.5-16.2-25.8c1.9-4.1,2.9-8.7,6.3-11.9c2.5-2.3,0.3-2.9-1.1-4.3
		c-4.2-4.1-7.7-8.3-5.4-15c2.9-8.3,5.7-16.6,16.3-17.9c2.6-0.3,5.9-0.3,7.1,2.1c1.4,3,1,6.6-1.1,9.5c-1.6,2.2-3.3,1.7-5.5,0.3
		c-3.7-2.4-8.6-1.7-9.7,2c-0.8,2.8,2,7.4,6.2,8.4c4.2,1.1,8.4,1.5,12-2.2C117.8,309.8,121.6,307,126.6,302.7z"/>
	<path class="st7" d="M189,283c-0.2,8.8-3.9,16.6-6.4,24.7c-2.4,8-2.1,15.5,1.9,22.9c1.6,3,3.4,5.8,7.6,5.5c4.2-0.3,6.5-2.6,7.5-6.4
		c0.4-1.6,0.9-3.2,2.8-4.6c0.6,9.5-4.3,16.5-8.8,23.3c-3.1,4.6-9.4,3.1-13.3-1.2c-6.7-7.3-5.8-16.1-5-24.5
		C176.5,308.3,180.7,294.9,189,283z"/>
</g>
</svg>
