<?xml version="1.0" encoding="UTF-8"?>
<svg id="Layer_1" data-name="Layer 1" xmlns="http://www.w3.org/2000/svg" version="1.1" viewBox="0 0 595.28 841.89">
  <defs>
    <style>
      .cls-1 {
        fill: #2f2f32;
      }

      .cls-1, .cls-2, .cls-3, .cls-4, .cls-5, .cls-6, .cls-7 {
        stroke-width: 0px;
      }

      .cls-2 {
        fill: #fcfcfc;
      }

      .cls-3 {
        fill: #282b2d;
      }

      .cls-4 {
        fill: #01adb3;
      }

      .cls-5 {
        fill: #00afbf;
      }

      .cls-6 {
        fill: #02afbf;
      }

      .cls-7 {
        fill: #fefefe;
      }
    </style>
  </defs>
  <g>
    <path class="cls-5" d="M426.72,292.41c2.9-6.02,5.64-11.69,8.37-17.37,1.16-2.4,2.28-4.82,3.47-7.21.47-.95,1-1.91,1.69-2.7,1.73-1.98,4.12-2.12,6.19-.49.93.73,1.57,1.67,2.07,2.73,3.71,7.78,7.45,15.55,11.16,23.34,1.15,2.42.7,3.9-1.46,5.17-1.58.93-2.73.77-4.1-.51-1.02-.95-1.51-2.19-1.92-3.46-.63-1.92-1.82-2.89-3.96-2.81-3.12.11-6.24.09-9.36,0-1.8-.05-2.82.77-3.42,2.37-.34.92-.7,1.84-1.17,2.69-1.41,2.54-3.84,3.08-5.96,1.14-1.06-.96-1.7-1.37-2.69-.06-.75.99-1.86,1.26-3.1,1.25-5.08-.03-10.16.03-15.24-.03-2.84-.03-4.13-1.26-4.15-4.08-.06-7.91-.06-15.83,0-23.74.02-2.57,1.39-3.95,4.02-4,5.17-.09,10.34-.03,15.51-.03.82,0,1.6.18,2.27.66.9.63,1.68,1.36,1.61,2.59-.08,1.32-.89,2.05-2.04,2.54-.93.4-1.89.45-2.88.45-2.67,0-5.35-.03-8.02,0-2.22.03-2.37.22-2.44,2.49q-.13,3.95,3.92,3.95c1.96,0,3.92,0,5.88,0,.8,0,1.6-.01,2.38.26,1.57.54,2.33,1.53,2.22,2.93-.1,1.3-1.12,2.49-2.58,2.65-1.5.17-3.03.09-4.54.1-1.69.01-3.39-.01-5.08.02-.53,0-1.1.04-1.56.25-.65.29-.98,4.59-.52,5.89.48,1.38,1.62,1.24,2.67,1.05,2.13-.39,4.27-.17,6.4-.26,2.39-.1,4.64.18,6.34,2.21ZM448.04,282.88c-1.2-2.68-2.24-5.03-3.29-7.36-.22-.49-.54-1.02-1.12-1.02-.63,0-.8.63-1.01,1.11-.91,2.03-1.81,4.06-2.7,6.1-.38.88-.02,1.45.89,1.46,2.29.04,4.6.3,7.24-.28Z"/>
    <path class="cls-5" d="M397.32,279.93c0,4,.04,8.01-.01,12.01-.04,2.86-1.48,4.49-3.81,4.52-2.5.04-4.15-1.66-4.24-4.47-.07-2.31.02-4.63-.04-6.94-.05-1.99-.38-2.32-2.38-2.36-2.76-.06-5.53-.06-8.3,0-1.91.04-2.13.27-2.19,2.2-.06,1.87,0,3.74-.02,5.61-.01.89-.03,1.79-.2,2.65-.39,1.93-1.61,3.06-3.38,3.28-1.82.23-3.49-.73-4.28-2.52-.47-1.07-.59-2.22-.58-3.39.01-7.03,0-14.06,0-21.09,0-.89.05-1.77.32-2.64.65-2.08,2.4-3.39,4.35-3.24,1.67.13,3.46,1.79,3.65,3.73.19,1.94.12,3.91.13,5.87.02,3.6,0,3.6,3.73,3.6,2.23,0,4.46.03,6.69,0,2.32-.04,2.43-.16,2.47-2.42.04-2.31-.03-4.63.06-6.94.07-1.77,1.06-3.04,2.71-3.62,1.68-.59,3.14-.06,4.39,1.18.84.84.92,1.89.92,2.97,0,4,0,8.01,0,12.01,0,0,0,0,0,0Z"/>
    <path class="cls-5" d="M541.83,280.02c0,3.56,0,7.11,0,10.67,0,.8.01,1.61-.13,2.39-.39,2.16-1.99,3.42-4.15,3.38-1.99-.04-3.67-1.6-3.78-3.74-.12-2.31-.02-4.62-.06-6.93-.05-2.8-.32-3.08-3.06-3.11-2.41-.02-4.81-.03-7.22,0-2.55.03-2.86.35-2.92,2.99-.04,2.13.02,4.27-.03,6.4-.07,2.62-1.51,4.3-3.68,4.39-2.45.1-4.35-1.64-4.37-4.36-.07-8-.04-16.01,0-24.01,0-2.05.9-3.65,2.9-4.35,1.58-.56,2.95-.02,4.14,1.13.85.82,1.03,1.82,1.03,2.92,0,2.13-.02,4.27.02,6.4.05,2.25.27,2.5,2.43,2.54,2.85.05,5.71-.03,8.56.02,1.6.03,2.25-.68,2.22-2.25-.05-2.22-.05-4.45.01-6.67.07-2.49,1.62-4.18,3.83-4.28,2.3-.11,4.15,1.61,4.21,4.19.1,4.09.03,8.18.03,12.27,0,0,.02,0,.03,0Z"/>
    <path class="cls-5" d="M491.52,330.35c0-3.64.01-7.29,0-10.93,0-1.28.2-2.48,1.14-3.44,1.43-1.47,3.45-1.59,5-.1,1.08,1.04,1.96,2.29,2.89,3.47,2.81,3.55,5.6,7.12,8.41,10.67.32.41.66.99,1.24.84.8-.2.6-1,.61-1.58.03-2.93.01-5.86.01-8.8,0-.62-.03-1.25.03-1.86.23-2.24,1.8-3.82,3.74-3.79,1.93.03,3.49,1.61,3.65,3.88.11,1.59.05,3.2.05,4.8,0,5.69-.01,11.37,0,17.06,0,1.37-.16,2.65-1.1,3.74-1.38,1.59-3.41,1.84-4.93.36-1.39-1.36-2.6-2.91-3.83-4.43-2.45-3.04-4.86-6.12-7.3-9.18-.28-.35-.57-.69-.88-1-.3-.3-.6-.74-1.11-.52-.5.22-.43.72-.38,1.16.33,2.92.08,5.86.16,8.79.03,1.07-.07,2.13-.33,3.17-.48,1.87-1.86,2.97-3.61,2.91-1.73-.06-3.31-1.57-3.41-3.48-.11-2.13-.04-4.26-.04-6.4,0-1.78,0-3.55,0-5.33Z"/>
    <path class="cls-5" d="M338.87,292.72c-.12,1.69-1.07,2.8-2.56,3.45-1.49.64-2.74.22-3.85-.96-1.02-1.09-1.41-2.48-1.9-3.79-.58-1.58-1.62-2.27-3.22-2.27-3.48,0-6.96,0-10.44-.02-1.34,0-2.14.65-2.64,1.85-.51,1.23-1.02,2.48-1.7,3.62-1.05,1.76-2.64,2.26-4.33,1.56-1.9-.79-2.81-2.29-2.41-4.24.2-.95.55-1.88.98-2.76,3.4-7.05,6.82-14.09,10.25-21.13.27-.56.54-1.12.85-1.66,2.17-3.79,6.57-3.81,8.72.03,1.08,1.94,1.93,4,2.89,6.01,2.87,6.02,5.75,12.03,8.63,18.04.35.72.79,1.4.72,2.26ZM322.26,283.18s0,0,0,0c.97,0,1.95.03,2.92,0,.85-.03,1.42-.35.98-1.32-1.01-2.25-1.99-4.52-3.08-6.74-.48-.98-1.19-1.04-1.68.06-.98,2.17-1.93,4.36-2.88,6.54-.37.85-.13,1.4.83,1.45.97.05,1.95.01,2.92.01Z"/>
    <path class="cls-5" d="M379.67,345.63c-4.2-.03-7.4-.7-10.39-2.2-.55-.28-1.11-.61-1.53-1.04-1.08-1.08-1.27-2.73-.49-3.93.88-1.35,2.17-1.53,3.52-.94,2.04.89,4.07,1.69,6.3,2.11,1.76.33,3.36.02,4.99-.44,1.03-.29,1.71-.96,1.77-2.08.05-1.04-.62-1.65-1.44-2.06-1.6-.8-3.35-1.23-5.1-1.53-1.87-.32-3.58-1.01-5.3-1.77-6.31-2.81-5.82-10.52-1.19-14.01,5.09-3.84,13.41-3.96,18.62-.27,1.47,1.04,1.96,2.97,1.14,4.48-.71,1.31-2.08,1.63-3.99.71-1.69-.81-3.38-1.49-5.24-1.88-1.62-.33-2.99.06-4.4.6-.99.38-1.65,1.06-1.64,2.19.01,1.12.67,1.81,1.61,2.26,1.21.58,2.53.83,3.84,1.11,2.44.52,4.78,1.25,7.03,2.42,5.63,2.95,4.75,11,.19,13.77-2.82,1.72-5.81,2.64-8.27,2.51Z"/>
    <path class="cls-5" d="M421.31,345.64c-4.14-.05-7.36-.6-10.35-2.13-.47-.24-.96-.49-1.35-.84-1.3-1.14-1.63-2.76-.88-4.08.72-1.26,1.96-1.7,3.73-.94,2.14.92,4.29,1.64,6.59,2.04,1.68.29,3.18-.04,4.7-.59,1-.36,1.68-1.05,1.71-2.16.02-1.04-.72-1.59-1.55-1.97-1.63-.74-3.36-1.19-5.12-1.48-1.6-.26-3.09-.85-4.6-1.36-6.81-2.28-6.54-11.14-1.83-14.45,3.62-2.55,7.63-3.28,11.93-2.74,2.05.26,3.99.9,5.77,1.98.7.42,1.31.92,1.83,1.54,1.01,1.2.86,2.47.11,3.71-.75,1.24-1.95,1.2-3.08.78-2.16-.8-4.18-1.91-6.53-2.22-1.71-.22-3.22.16-4.57,1.02-1.57,1-1.53,2.67.03,3.69,1.28.83,2.76,1.19,4.26,1.5,2.09.42,4.15.98,6.12,1.84,2.92,1.27,4.75,3.28,4.95,6.64.22,3.6-1.38,6.17-4.28,8.03-2.54,1.62-5.37,2.34-7.59,2.19Z"/>
    <path class="cls-5" d="M350.37,345.61c-3.35,0-6.53-.7-9.53-2.2-.48-.24-.96-.49-1.36-.84-1.19-1.01-1.45-2.8-.64-4.11.72-1.17,1.99-1.61,3.51-.91,2.04.93,4.12,1.61,6.32,2.06,1.77.36,3.36.03,4.99-.44,1.03-.29,1.72-.96,1.76-2.09.04-1.03-.62-1.65-1.45-2.05-1.7-.82-3.53-1.23-5.37-1.58-1.94-.36-3.77-.98-5.52-1.93-5.96-3.23-5.06-10.14-1.12-13.44,5.09-4.25,13.24-4.56,19.24-.46,1.42.97,1.7,2.74.86,4.28-.72,1.31-1.82,1.68-3.71.85-1.95-.86-3.84-1.8-6-2.1-1.71-.24-3.21.28-4.56,1.12-1.5.94-1.49,2.39-.11,3.52,1.22,1.01,2.77,1.17,4.22,1.56,2.49.66,4.97,1.22,7.33,2.39,4.7,2.33,4.9,9.05,2,12.16-2.61,2.8-5.87,4.18-10.85,4.19Z"/>
    <path class="cls-5" d="M333.23,345.56c-1.14-.03-2.09-.46-2.75-1.39-.3-.43-.63-.91-.74-1.41-.74-3.56-3.11-4.29-6.35-3.96-2.12.21-4.27.05-6.41.04-1.66,0-2.86.47-3.51,2.23-.48,1.3-1.05,2.63-2.19,3.61-1.07.93-2.19,1.16-3.44.54-1.25-.62-2.24-1.45-2.17-3.05.05-1,.33-1.92.76-2.81,2.6-5.36,5.21-10.71,7.8-16.08.85-1.76,1.62-3.56,2.48-5.31.87-1.77,2.11-3.13,4.26-3.15,2.25-.01,3.65,1.38,4.55,3.2,2.4,4.86,4.69,9.77,7.02,14.66,1.3,2.72,2.73,5.4,3.88,8.18.91,2.2-.91,4.68-3.21,4.69ZM321.12,333.36c1.06,0,2.13.04,3.19-.02.6-.03,1.09-.4.73-1.05-1.14-2.11-1.92-4.37-2.93-6.53-.46-.98-1.23-.94-1.74.05-.65,1.25-1.23,2.55-1.77,3.86-1.52,3.71-2.69,3.76,2.52,3.7Z"/>
    <path class="cls-5" d="M473.22,338.83c-.45,0-.9.05-1.34,0-3.55-.47-6.06.36-7.39,4.23-.99,2.89-3.7,3.28-5.79,1.4-1.15-1.03-1.32-2.6-.39-4.68,1.05-2.35,2.15-4.69,3.27-7.01,2.28-4.72,4.83-9.32,6.85-14.16.1-.25.24-.48.37-.71.92-1.75,2.16-3.08,4.32-3.06,2.13.02,3.44,1.36,4.38,3.05.95,1.7,1.74,3.5,2.59,5.26,2.44,5.04,4.89,10.07,7.32,15.11.39.8.75,1.62,1.05,2.45.7,1.95-.09,3.78-1.97,4.63-1.5.68-3.32-.02-4.28-1.7-.35-.61-.62-1.28-.89-1.94-1.16-2.78-1.24-2.84-4.36-2.86-1.25,0-2.5,0-3.74,0ZM473.18,333.36c1.06,0,2.13.04,3.19-.02.6-.03,1.07-.41.72-1.06-1.14-2.11-1.92-4.37-2.94-6.53-.46-.98-1.22-.93-1.74.06-.61,1.17-1.13,2.4-1.65,3.62-1.75,4.12-2.64,3.97,2.42,3.92Z"/>
    <path class="cls-5" d="M495.46,264.61c3.57,0,7.13-.07,10.7.02,2.47.06,3.61,1.24,3.61,3.36,0,1.97-1.04,3.19-3.04,3.34-1.6.12-3.21.01-4.81.06-2.1.06-2.3.22-2.31,2.32-.04,5.51-.01,11.03-.01,16.54,0,.71.03,1.42-.01,2.13-.11,2.07-1.36,3.6-3.26,4-2.03.44-3.87-.54-4.81-2.49-.48-1.01-.47-2.07-.48-3.13,0-5.51.01-11.03,0-16.54,0-2.73-.11-2.8-2.89-2.84-1.25-.02-2.5.05-3.74-.03-2.23-.14-3.45-1.31-3.51-3.24-.06-1.87,1.13-3.2,3.35-3.43,1.68-.17,3.38-.08,5.08-.09,2.05-.01,4.1,0,6.15,0v.02Z"/>
    <path class="cls-5" d="M530.02,332.52c0-2.49,0-4.98,0-7.47q0-3.46-3.6-3.47c-.89,0-1.79.04-2.67-.02-2.21-.14-3.3-1.26-3.33-3.33-.03-2.05,1.04-3.35,3.29-3.38,6.86-.09,13.73-.08,20.59-.01,1.92.02,3.42,1.75,3.35,3.46-.06,1.59-1.54,3.07-3.33,3.24-.88.08-1.78.03-2.67.04q-3.59.01-3.59,3.47c0,4.89,0,9.78,0,14.67,0,.98.02,1.95-.28,2.91-.63,2.03-2.14,3.1-4.2,2.95-1.92-.14-3.41-1.59-3.48-3.71-.11-3.11-.03-6.22-.03-9.34-.01,0-.02,0-.03,0Z"/>
    <path class="cls-5" d="M447.65,314.8c3.21,0,6.42-.05,9.62.02,2.35.05,3.57,1.09,3.76,2.96.21,2.12-1.01,3.61-3.16,3.78-.8.07-1.6.02-2.4.02q-4.03,0-4.04,3.91c0,5.16-.01,10.31,0,15.47,0,1.39-.24,2.62-1.34,3.61-2.08,1.88-5.4,1.04-6.25-1.64-.38-1.2-.47-2.43-.47-3.69.02-4.98.02-9.96,0-14.93-.01-2.57-.15-2.68-2.74-2.73-1.16-.02-2.32.05-3.47-.04-2.12-.16-3.04-1.13-3.19-3.2-.12-1.68.91-3.01,2.73-3.4.69-.15,1.42-.14,2.13-.14,2.94-.01,5.88,0,8.82,0h0Z"/>
    <path class="cls-5" d="M464.23,279.98c0-3.55,0-7.1,0-10.66,0-.89-.03-1.78.26-2.64.65-1.92,2.34-3.21,4.15-3.15,1.75.06,3.49,1.53,3.9,3.45.18.86.17,1.76.17,2.65.01,5.77,0,11.54.01,17.32.01,2.58.15,2.7,2.72,2.74,2.14.03,4.27,0,6.41.01.71,0,1.44-.02,2.13.11,1.86.34,3.16,1.88,3.03,3.5-.14,1.65-1.58,3.11-3.41,3.13-5.25.07-10.51.05-15.76.01-1.73-.01-2.75-1.03-3.25-2.65-.32-1.04-.38-2.09-.38-3.16,0-3.55,0-7.1,0-10.66Z"/>
    <path class="cls-5" d="M341.02,280.49c0-4-.03-8,0-12,.03-2.93,1.29-4.38,3.79-4.49,2.34-.11,4.36,1.68,4.69,4.18.07.53.05,1.07.05,1.6,0,7.02,0,14.05,0,21.07,0,1.16-.09,2.31-.51,3.41-.81,2.12-2.58,3.12-4.88,2.76-2.02-.32-3.09-1.59-3.13-3.98-.06-4.18-.02-8.36-.02-12.54Z"/>
    <path class="cls-5" d="M403.16,330.21c0,3.37.01,6.74-.01,10.11,0,.79-.02,1.61-.23,2.37-.51,1.86-2.12,2.97-3.99,2.87-1.87-.09-3.33-1.36-3.66-3.27-.12-.69-.09-1.41-.09-2.12,0-6.65-.01-13.3,0-19.95,0-3.6,1.42-5.47,4.02-5.39,2.58.08,3.94,1.97,3.95,5.55,0,3.28,0,6.56,0,9.84Z"/>
  </g>
  <g>
    <path class="cls-4" d="M27.11,344.81c2.3-2.9,3.61-3.07,6.42-.79.52.42,1.04.6,1.68.6,9.73,0,19.45,0,29.48,0,.75-3.99,1.5-7.94,2.24-11.89,1.59-8.49,3.19-16.98,4.75-25.48.17-.93.22-1.86,1.45-1.76,1.03.08,1.1,1,1.24,1.78,2.68,14.47,5.34,28.95,8.04,43.42.45,2.42,1.06,4.8,1.69,7.66,1.62-4.08,3.22-7.73,4.5-11.5.6-1.76,1.48-2.2,3.24-2.19,9.82.08,19.64.04,29.46.04.88,0,1.75,0,2.66,0,.48-1.05.55-1.94-.06-2.83-.15-.9-.13-1.73.87-2.18.85-.32,1.75.23,2.85-.22.18-2.72-1.21-5.99,2.27-8.19-4.01-3.34-2.06-7.56-1.77-11.45.42-5.67.35-11.23-.67-16.85-1.02-5.62.56-10.72,5.02-14.49,5.18-4.38,10.95-8.07,15.52-13.19.76-.86,1.64-1.61,2.29-2.56.56-.87,1.16-1.71,2.25-2,7.16-1.12,11.94,1.34,15.04,8.31,3.74,8.42,6.8,16.75,6.19,26.18-.46,7.07.48,14.13,1.03,21.19.16,2.11.21,4.26.03,6.36-.23,2.66-.67,5.36-3.5,6.67-.77.35-.79.86-.72,1.48.15,1.23.35,2.45.55,3.83h33.46c.49-3.58.99-7.22,1.48-10.85,1.41-10.41,2.83-20.82,4.2-31.23.81-6.13,1.49-12.27,2.33-18.39.15-1.11-.17-2.98,1.36-3.09,1.84-.13,1.28,1.85,1.44,2.88,1.41,8.8,2.71,17.62,4.02,26.44,1.32,8.91,2.62,17.82,3.94,26.72.62,4.19,1.25,8.38,1.92,12.57.13.83-.14,1.81.79,2.5.13-.37.25-.69.35-1.02q1.95-6.16,8.54-6.15c8.06,0,16.11,0,24.17.03,1.27,0,2.25-.11,3.22-1.24,1.35-1.59,3.52-1.4,4.9.04,1.29,1.36,1.23,3.46-.16,4.76-1.4,1.32-3.49,1.28-4.93-.34-.6-.68-1.11-.98-1.97-.98-9.91.02-19.82,0-29.94,0-1.12,3.45-2.22,6.86-3.34,10.26-.29.88-.24,2.16-1.51,2.17-1.42.01-1.14-1.3-1.28-2.2-1.75-11.69-3.49-23.39-5.26-35.08-1.3-8.56-2.65-17.1-3.96-25.66-.2-1.29-.33-2.6-.49-3.89-.78,0-.69.54-.74.93-1.73,12.96-3.45,25.92-5.17,38.89-.56,4.2-1.15,8.4-1.62,12.61-.17,1.48-.83,1.9-2.24,1.9-11.24-.04-22.48-.03-33.73,0-1.16,0-1.85-.29-1.97-1.55-.13-1.32-.32-2.63-.56-3.93-.39-2.1-.81-3.85,2.14-4.82,1.92-.63,1.97-3.17,2.09-5.12.27-4.79-.48-9.53-.76-14.3-.3-5.12-.76-10.22-.45-15.37.49-8.16-2.76-15.33-6.25-22.41-.43-.87-.97-1.68-1.47-2.51-2.35-3.99-4.37-4.97-8.89-4.41-.78.1-1.33.4-1.76,1-4.82,6.76-11.57,11.37-18.03,16.3-3.5,2.67-5.69,8.67-4.55,12.83,1.61,5.93,1.15,11.92.58,17.92-.17,1.76-.34,3.52-.58,5.27-.12.83.36,1.3.79,1.86,1.41,1.81,2.73,3.69,3.67,5.8.49,1.09,1.37,2.39.14,3.37-1.23.99-2.5.17-3.61-.62-.27-.2-.37-.63-.87-.6-.7,1.87,2.1,3.19.92,5.06-1.1,1.75-2.75,2.4-4.76,1.68-.11.26-.23.42-.23.58q-.17,3.54-3.67,3.55c-9.83,0-19.65.04-29.48-.05-1.67-.01-2.46.42-3.03,2.05-1.84,5.22-3.88,10.36-5.84,15.53h-1.59c-1.38-.75-1.39-2.19-1.63-3.46-2.01-10.6-3.93-21.22-6.01-31.81-.82-4.16-1.72-8.3-2.3-12.35-.18,3.08-.87,6.23-1.57,9.38-1.15,5.18-1.93,10.43-2.99,15.63q-1.19,5.83-7.25,5.83c-7.61,0-15.21.02-22.82-.01-1.89,0-3.6.29-5.3,1.3-2.81,1.67-5.02.61-5.91-2.59v-1.59Z"/>
    <path class="cls-1" d="M159.4,241.2c1.72.89,1.73,2.51,1.03,3.79-2.56,4.73-2.38,10.05-3.57,15.07-.56,2.37-1.38,4.54-3.29,6.15-5.23,4.4-12.79,2.2-15.07-4.57-1.09-3.23-1.83-6.62-2.27-10.01-.77-5.91.29-7.59,5.63-10.43h17.53Z"/>
    <path class="cls-6" d="M285.31,302.02c0-15.75,0-31.5,0-47.25,0-2.73.7-3.31,3.29-3.03,1.25.14,1.95.74,2.08,1.98.06.53.04,1.06.04,1.59,0,31.32,0,62.64,0,93.96,0,1.32.17,2.68-1.2,3.56-.74.48-1.43,1.23-2.37.67-.9-.53-1.86-1.1-1.84-2.38.01-.71-.01-1.42-.01-2.12,0-15.66,0-31.32,0-46.98Z"/>
    <path class="cls-3" d="M124.96,340.01c-.92.29-.57,1.31-1.05,1.85-2.38-2.23-3.36-5.42-2.61-8.13,1.67-6.07-.03-11.71-.94-17.49-.56-3.57-1.29-7.11-1.72-10.7-.19-1.54.16-3.15.3-4.72.53-5.97.76-11.97,2.18-17.83,1.2-4.94,4.13-8.19,8.86-10.04,7.33-2.86,14.8-3.86,22.55-2.22-.56.67-1.12,1.33-1.68,2-1.74.99-3.64.61-5.46.54-4.12-.16-8.07.54-12,1.74-5.68,1.74-8.87,5.41-9.78,11.28-1.6,10.27-2.41,20.5.03,30.79,1.3,5.48,2.58,11.05.77,16.74-.35,1.11.16,2.27.44,3.38.23.93.7,1.85.12,2.81Z"/>
    <path class="cls-7" d="M124.96,340.01c-1.35-3.26-1.72-6.48-.66-9.99,1.25-4.14-.37-8.23-1.31-12.17-2.67-11.26-1.78-22.4.29-33.57.84-4.53,3.52-7.42,7.81-9.2,6.4-2.65,12.99-3.04,19.74-2.36-2.08,3.34-4.98,5.92-7.96,8.39-3.4,2.82-6.92,5.5-10.48,8.13-1.36,1-2.2,2.2-2.74,3.76-1.41,3.99-2.56,7.78-1.21,12.26,1.84,6.11.64,12.5-.1,18.7-.34,2.81,0,4.98,1.99,6.92.37.36.66.82,1.39,1.76-2.66-1.32-3.02.17-3.47,1.74-.61,2.11.19,3.98.92,5.97-1.54.5-2.87,0-4.21-.35Z"/>
    <path class="cls-7" d="M154.04,250.81c.66,3.08.85,6.07.41,9.02-.51,3.36-3.2,5.89-6.28,6.27-2.62.32-6.03-1.85-7.27-4.8-1.2-2.85-1.26-5.83-.53-8.81.42-1.7,1.54-2.48,3.35-2.11,3.3.68,6.65.64,10.33.42Z"/>
    <path class="cls-2" d="M158.47,243.72c-.88,1.88-1.53,3.29-2.1,4.5-4.7.67-9.24.41-13.78-.19-1.51-.2-2.66.66-3.72,1.67-.56-3.72,1.29-6.11,4.88-5.81,4.76.4,9.5.46,14.71-.15Z"/>
  </g>
</svg>