<?xml version="1.0" encoding="UTF-8"?>
<svg id="Layer_1" data-name="Layer 1" xmlns="http://www.w3.org/2000/svg" version="1.1" viewBox="0 0 482.17 133.51">
  <defs>
    <style>
      .cls-1 {
        fill: #2f2f32;
      }

      .cls-1, .cls-2, .cls-3, .cls-4, .cls-5, .cls-6 {
        stroke-width: 0px;
      }

      .cls-2 {
        fill: #fcfcfc;
      }

      .cls-3 {
        fill: #282b2d;
      }

      .cls-4 {
        fill: #01adb3;
      }

      .cls-7 {
        font-size: 44.65px;
      }

      .cls-7, .cls-8 {
        fill: #00afbf;
        font-family: Arantxa-Black, Arantxa;
        font-weight: 800;
      }

      .cls-8 {
        font-size: 36.87px;
      }

      .cls-5 {
        fill: #02afbf;
      }

      .cls-6 {
        fill: #fefefe;
      }
    </style>
  </defs>
  <g>
    <path class="cls-4" d="M3.95,108.46c2.3-2.9,3.61-3.07,6.42-.79.52.42,1.04.6,1.68.6,9.73,0,19.45,0,29.48,0,.75-3.99,1.5-7.94,2.24-11.89,1.59-8.49,3.19-16.98,4.75-25.48.17-.93.22-1.86,1.45-1.76,1.03.08,1.1,1,1.24,1.78,2.68,14.47,5.34,28.95,8.04,43.42.45,2.42,1.06,4.8,1.69,7.66,1.62-4.08,3.22-7.73,4.5-11.5.6-1.76,1.48-2.2,3.24-2.19,9.82.08,19.64.04,29.46.04.88,0,1.75,0,2.66,0,.48-1.05.55-1.94-.06-2.83-.15-.9-.13-1.73.87-2.18.85-.32,1.75.23,2.85-.22.18-2.72-1.21-5.99,2.27-8.19-4.01-3.34-2.06-7.56-1.77-11.45.42-5.67.35-11.23-.67-16.85-1.02-5.62.56-10.72,5.02-14.49,5.18-4.38,10.95-8.07,15.52-13.19.76-.86,1.64-1.61,2.29-2.56.56-.87,1.16-1.71,2.25-2,7.16-1.12,11.94,1.34,15.04,8.31,3.74,8.42,6.8,16.75,6.19,26.18-.46,7.07.48,14.13,1.03,21.19.16,2.11.21,4.26.03,6.36-.23,2.66-.67,5.36-3.5,6.67-.77.35-.79.86-.72,1.48.15,1.23.35,2.45.55,3.83h33.46c.49-3.58.99-7.22,1.48-10.85,1.41-10.41,2.83-20.82,4.2-31.23.81-6.13,1.49-12.27,2.33-18.39.15-1.11-.17-2.98,1.36-3.09,1.84-.13,1.28,1.85,1.44,2.88,1.41,8.8,2.71,17.62,4.02,26.44,1.32,8.91,2.62,17.82,3.94,26.72.62,4.19,1.25,8.38,1.92,12.57.13.83-.14,1.81.79,2.5.13-.37.25-.69.35-1.02q1.95-6.16,8.54-6.15c8.06,0,16.11,0,24.17.03,1.27,0,2.25-.11,3.22-1.24,1.35-1.59,3.52-1.4,4.9.04,1.29,1.36,1.23,3.46-.16,4.76-1.4,1.32-3.49,1.28-4.93-.34-.6-.68-1.11-.98-1.97-.98-9.91.02-19.82,0-29.94,0-1.12,3.45-2.22,6.86-3.34,10.26-.29.88-.24,2.16-1.51,2.17-1.42.01-1.14-1.3-1.28-2.2-1.75-11.69-3.49-23.39-5.26-35.08-1.3-8.56-2.65-17.1-3.96-25.66-.2-1.29-.33-2.6-.49-3.89-.78,0-.69.54-.74.93-1.73,12.96-3.45,25.92-5.17,38.89-.56,4.2-1.15,8.4-1.62,12.61-.17,1.48-.83,1.9-2.24,1.9-11.24-.04-22.48-.03-33.73,0-1.16,0-1.85-.29-1.97-1.55-.13-1.32-.32-2.63-.56-3.93-.39-2.1-.81-3.85,2.14-4.82,1.92-.63,1.97-3.17,2.09-5.12.27-4.79-.48-9.53-.76-14.3-.3-5.12-.76-10.22-.45-15.37.49-8.16-2.76-15.33-6.25-22.41-.43-.87-.97-1.68-1.47-2.51-2.35-3.99-4.37-4.97-8.89-4.41-.78.1-1.33.4-1.76,1-4.82,6.76-11.57,11.37-18.03,16.3-3.5,2.67-5.69,8.67-4.55,12.83,1.61,5.93,1.15,11.92.58,17.92-.17,1.76-.34,3.52-.58,5.27-.12.83.36,1.3.79,1.86,1.41,1.81,2.73,3.69,3.67,5.8.49,1.09,1.37,2.39.14,3.37-1.23.99-2.5.17-3.61-.62-.27-.2-.37-.63-.87-.6-.7,1.87,2.1,3.19.92,5.06-1.1,1.75-2.75,2.4-4.76,1.68-.11.26-.23.42-.23.58q-.17,3.54-3.67,3.55c-9.83,0-19.65.04-29.48-.05-1.67-.01-2.46.42-3.03,2.05-1.84,5.22-3.88,10.36-5.84,15.53h-1.59c-1.38-.75-1.39-2.19-1.63-3.46-2.01-10.6-3.93-21.22-6.01-31.81-.82-4.16-1.72-8.3-2.3-12.35-.18,3.08-.87,6.23-1.57,9.38-1.15,5.18-1.93,10.43-2.99,15.63q-1.19,5.83-7.25,5.83c-7.61,0-15.21.02-22.82-.01-1.89,0-3.6.29-5.3,1.3-2.81,1.67-5.02.61-5.91-2.59v-1.59Z"/>
    <path class="cls-1" d="M136.24,4.86c1.72.89,1.73,2.51,1.03,3.79-2.56,4.73-2.38,10.05-3.57,15.07-.56,2.37-1.38,4.54-3.29,6.15-5.23,4.4-12.79,2.2-15.07-4.57-1.09-3.23-1.83-6.62-2.27-10.01-.77-5.91.29-7.59,5.63-10.43h17.53Z"/>
    <path class="cls-5" d="M262.15,65.67c0-15.75,0-31.5,0-47.25,0-2.73.7-3.31,3.29-3.03,1.25.14,1.95.74,2.08,1.98.06.53.04,1.06.04,1.59,0,31.32,0,62.64,0,93.96,0,1.32.17,2.68-1.2,3.56-.74.48-1.43,1.23-2.37.67-.9-.53-1.86-1.1-1.84-2.38.01-.71-.01-1.42-.01-2.12,0-15.66,0-31.32,0-46.98Z"/>
    <path class="cls-3" d="M101.79,103.67c-.92.29-.57,1.31-1.05,1.85-2.38-2.23-3.36-5.42-2.61-8.13,1.67-6.07-.03-11.71-.94-17.49-.56-3.57-1.29-7.11-1.72-10.7-.19-1.54.16-3.15.3-4.72.53-5.97.76-11.97,2.18-17.83,1.2-4.94,4.13-8.19,8.86-10.04,7.33-2.86,14.8-3.86,22.55-2.22-.56.67-1.12,1.33-1.68,2-1.74.99-3.64.61-5.46.54-4.12-.16-8.07.54-12,1.74-5.68,1.74-8.87,5.41-9.78,11.28-1.6,10.27-2.41,20.5.03,30.79,1.3,5.48,2.58,11.05.77,16.74-.35,1.11.16,2.27.44,3.38.23.93.7,1.85.12,2.81Z"/>
    <path class="cls-6" d="M101.79,103.67c-1.35-3.26-1.72-6.48-.66-9.99,1.25-4.14-.37-8.23-1.31-12.17-2.67-11.26-1.78-22.4.29-33.57.84-4.53,3.52-7.42,7.81-9.2,6.4-2.65,12.99-3.04,19.74-2.36-2.08,3.34-4.98,5.92-7.96,8.39-3.4,2.82-6.92,5.5-10.48,8.13-1.36,1-2.2,2.2-2.74,3.76-1.41,3.99-2.56,7.78-1.21,12.26,1.84,6.11.64,12.5-.1,18.7-.34,2.81,0,4.98,1.99,6.92.37.36.66.82,1.39,1.76-2.66-1.32-3.02.17-3.47,1.74-.61,2.11.19,3.98.92,5.97-1.54.5-2.87,0-4.21-.35Z"/>
    <path class="cls-6" d="M130.88,14.47c.66,3.08.85,6.07.41,9.02-.51,3.36-3.2,5.89-6.28,6.27-2.62.32-6.03-1.85-7.27-4.8-1.2-2.85-1.26-5.83-.53-8.81.42-1.7,1.54-2.48,3.35-2.11,3.3.68,6.65.64,10.33.42Z"/>
    <path class="cls-2" d="M135.3,7.37c-.88,1.88-1.53,3.29-2.1,4.5-4.7.67-9.24.41-13.78-.19-1.51-.2-2.66.66-3.72,1.67-.56-3.72,1.29-6.11,4.88-5.81,4.76.4,9.5.46,14.71-.15Z"/>
  </g>
  <text class="cls-7" transform="translate(278.44 56.32)"><tspan x="0" y="0">PILGRIM</tspan></text>
  <text class="cls-8" transform="translate(281.3 105.93) scale(.9 1)"><tspan x="0" y="0">HEALTH AI</tspan></text>
</svg>