<?xml version="1.0" encoding="UTF-8"?>
<svg id="Layer_1" data-name="Layer 1" xmlns="http://www.w3.org/2000/svg" version="1.1" viewBox="0 0 1080 1080">
  <defs>
    <style>
      .cls-1 {
        fill: #00afbf;
        stroke-width: 0px;
      }
    </style>
  </defs>
  <path class="cls-1" d="M874.09,254.02c.12,7.46-1.59,14.53-4.49,21.35-74.58,175.41-149.14,350.83-223.78,526.22-8.5,19.98-23.81,31.64-45.49,33.19-22.29,1.59-39.48-7.95-50.64-27.38-31.67-55.17-63.21-110.42-94.68-165.7-5.77-10.14-13.56-17.92-23.7-23.67-55.34-31.36-110.64-62.78-165.89-94.31-29.52-16.85-36.54-54.54-15.13-80.3,5.77-6.94,13-11.83,21.28-15.31,83.62-35.17,167.24-70.34,250.85-105.54,92.81-39.07,185.61-78.16,278.41-117.26,35.19-14.83,73.34,10.51,73.25,48.69ZM821.16,232.53c-2.63-.09-6.05,1.18-9.45,2.62-175.28,73.97-350.57,147.94-525.86,221.9-2.61,1.1-5.16,2.3-7.36,4.17-11.7,9.95-9.59,27.07,4.44,35.08,55.38,31.62,110.8,63.18,166.2,94.78,13.18,7.52,23.6,17.87,31.12,31.03,32.65,57.1,65.24,114.23,97.84,171.37,4.46,7.81,11.07,11.98,20.06,11.47,8.99-.51,15.13-5.41,18.64-13.67,63.09-148.46,126.19-296.92,189.28-445.39,11.78-27.73,23.64-55.43,35.32-83.2,6.23-14.8-3.54-30.02-20.25-30.15Z"/>
  <path class="cls-1" d="M696.72,362.81c6.77.31,11.82,3.44,14.38,9.75,2.64,6.48,1.32,12.44-3.68,17.43-15.33,15.3-30.69,30.58-46.04,45.87-42.05,41.85-84.12,83.67-126.12,125.56-4.25,4.24-8.94,7.07-15.07,6.16-6.28-.93-10.78-4.52-12.76-10.59-2.09-6.41-.54-12.11,4.31-16.93,15.97-15.84,31.9-31.73,47.84-47.6,40.87-40.67,81.74-81.33,122.58-122.04,4.09-4.08,8.19-7.93,14.56-7.61Z"/>
</svg>